<?xml version="1.0" encoding="utf-8"?>
<svg xmlns="http://www.w3.org/2000/svg" fill="none" height="120" viewBox="0 0 160 120" width="160">
  <g clip-rule="evenodd" fill="#fff" fill-rule="evenodd">
    <path d="m134.389 67.0179c-4.359 0-6.323-2.7976-6.323-6.9279 0-4.0925 2.17-7.1524 6.473-7.1524 2.693 0 5.312 1.2014 5.387 4.2799h-3.031c-.15-1.3516-1.048-2.0651-2.356-2.0651-2.638 0-3.443 2.8538-3.443 5.0313 0 2.1593.805 4.6749 3.348 4.6749 1.329 0 2.301-.7132 2.507-2.0838h3.049c-.336 3.079-2.805 4.2431-5.611 4.2431z"/>
    <path d="m108.733 67.0179c-2.918 0-5.312-1.1641-5.368-4.4118h2.936c.038 1.4458.88 2.3091 2.488 2.3091 1.198 0 2.545-.6009 2.545-1.9527 0-1.051-.917-1.3889-2.433-1.8209l-.972-.2815c-2.132-.6195-4.247-1.446-4.247-3.8865 0-3.0226 2.807-4.036 5.369-4.036 2.637 0 4.901.9198 4.92 3.9236h-2.937c-.112-1.2391-.823-1.9526-2.208-1.9526-1.084 0-2.169.5819-2.169 1.7833 0 .9952.898 1.2957 2.806 1.8964l1.122.3568c2.32.7321 3.778 1.539 3.778 3.7924 0 3.0973-2.974 4.2804-5.63 4.2804z"/>
    <path d="m121.012 64.7462c1.365 0 2.712-.3193 2.712-1.9713 0-1.6147-1.16-1.9904-2.544-1.9904h-2.319v3.9617zm-.281-5.8954c1.291 0 2.6-.2624 2.6-1.8398 0-1.4076-1.234-1.7835-2.413-1.7835h-2.057v3.6233zm-4.714-5.6506h4.695c1.479 0 2.077.0377 2.657.1688 1.646.3754 2.88 1.4454 2.88 3.2669 0 1.7458-1.103 2.6467-2.693 3.0601 1.833.338 3.18 1.2769 3.18 3.2854 0 3.0789-3.031 3.7924-5.406 3.7924h-5.313z"/>
    <path d="m98.7646 60.9727h-5.8549v5.8012h-2.9367v-13.5739h2.9367v5.5572h5.8549v-5.5572h2.9364v13.5739h-2.9364z"/>
    <path d="m36.2199 43.78 16.22 16.2199 16.2199-16.2199z"/>
    <path d="m36.2199 76.2199h32.4399l-16.2199-16.22z"/>
    <path d="m68.6598 76.2199 16.2199-16.22-16.2199-16.2199z"/>
    <path d="m20 59.9999 16.1477 16.1937.0722.0263v-32.4399z"/>
  </g>
</svg>