<?xml version="1.0" encoding="utf-8"?>
<svg xmlns="http://www.w3.org/2000/svg" fill="none" height="120" viewBox="0 0 160 120" width="160">
  <path clip-rule="evenodd" d="m78.5839 35.4044c.2761-3.6963.5514-7.383.766-11.0533h.0094c.4726.0329.5267.0526.7767.1439.0765.0279.1712.0626.3016.1063-.9203 15.9912-1.7347 33.3925.2324 49.2361.0362.3294-.5883.3132-1.2115.2974h-.0006c-.1362-.0037-.2723-.0074-.4014-.007.1468.7587.2985 1.5145.4552 2.2662l.0019.0079c-.4756.0988-.791.1972-1.1049.2951-.3206.0997-.6397.1995-1.1263.2988.0127-.0042-.0433-.2529-.1514-.7322-.8504-3.7751-4.9223-21.8497-3.9951-47.2676.5432-.1291.7219-.0902 1.1273-.0017.0928.0202.1975.0431.3212.0671.0069.0113.0166.3284.0345.913v.0009c.1159 3.797.5756 18.863 2.8685 34.7809-.3663-9.768.3676-19.5933 1.0965-29.3518zm6.6974 42.0879c.773-.0195 1.5367-.1763 2.2555-.4631.0069.019-.0079-.1248-.039-.4213-.3392-3.2782-2.61-25.1946 1.2699-50.7216-.257-.0939-.4695-.1878-.6816-.2816-.2102-.0929-.4204-.1858-.6737-.2787.0019.0077-.0158.111-.051.3163-.1768 1.0344-.7963 4.657-1.5967 11.7042-.8848 8.4139-1.8815 21.2916-.4834 40.1551zm9.441-4.9091c-.3884.0835-.7772.167-1.0849.251-3.796-24.3616-2.3311-37.1204-1.8871-40.989.0961-.8358.1443-1.2566.0817-1.2899.3318.0434.5085.0867.6853.1301.1787.0439.3578.0877.6979.1316-1.2579 16.9463 1.2653 32.5249 2.268 38.7158.3193 1.9716.4844 2.991.3239 2.7993-.3076.084-.696.1675-1.0848.2511zm-2.9033-42.0295.013.0016c-.0042-.002-.0084-.0026-.013-.0016zm-32.6785 30.5591.66-.0205h.3161c-.9148-9.9677-.6563-15.4574-.5587-17.5302.0311-.6614.0459-.9749.0009-.9749l-.7066-.0206c-.4369 6.1789-.3405 12.3841.2883 18.5462zm3.2649-11.7515-.0054-.0008c.5064-4.5827 1.174-8.0635 1.7887-10.6079-.6094 6.4742-1.2267 17.994-.4464 34.5038v-.0148c.2202-.0529.6056-.1058.9892-.1587.3745-.0515.7473-.1026.9632-.1531.005.0093-.0084-.1545-.0346-.4752-.2204-2.693-1.3466-16.4588-.0918-31.9662.0437 9.5698.7309 19.1291 2.0583 28.6124l1.3648-.3192.3235.0093c-.3897-3.2733-.7095-6.3067-.9714-9.109.4127-12.2851 1.1682-17.9239 1.3078-18.9661l.0001-.0004c.0136-.1014.0213-.1591.0223-.1752l-.3942-.0467c-.5492 3.408-.9635 10.062-1.2398 15.7362-1.0011-12.1484-.8576-19.3559-.7952-22.4869.0252-1.2674.0372-1.8671-.0456-1.8556l-1.4875-.2521c-.0134.364-.0259.7281-.0375 1.0922l-.6951-.1864c-.0159.0495-.1063.527-.2366 1.4312-1.5387 4.9768-2.571 10.0985-3.0805 15.2865l.7383.1019-.0001.0008zm42.7616 9.9903-.691-.0225-.322-.0018c.893-10.2961.475-14.8366.411-15.5336v-.001c-.005-.0529-.007-.0834-.007-.0924h.496c.726 3.511.266 12.5577.141 15.0229-.02.4015-.031.6284-.028.6284zm-5.157 6.4622h.71l.312.0112c.119-16.8065 1.272-24.1993 1.461-25.4108l.001-.0008c.016-.1017.024-.1597.026-.1758-.123-.0126-.264-.0192-.405-.0257l-.001-.0001c-.15-.0069-.301-.0139-.431-.0283-1.087 5.686-1.518 20.4615-1.638 24.5615-.02.6822-.031 1.0688-.035 1.0688zm-18.334 9.5046c.2436.1365 1.2644.1216 1.5451-.0148l.3308-.142c-1.2918-27.2982.8626-44.0937 1.1378-46.24v-.0009-.0007c.019-.1476.0292-.2254.0283-.2322-.1434-.0448-.5578-.1643-.5856.0131-3.7552 23.6089-2.63 43.5036-2.4727 46.2853.0121.2167.0186.3299.0163.3322zm8.8095-2.1645c-.1016.051-.2135.0807-.3271.0863-.1142.006-.2279-.0121-.3346-.0529.0009-.0014-.006-.0733-.0204-.2121-.1773-1.7618-1.4468-14.3538-.7141-32.4257 0-.0989.2343-.056.3123-.0298.0004.0041-.0019.0594-.0065.1637-.0747 1.641-.7011 15.3796 1.4124 32.373zm-18.4466 1.5558c.3188.0492.6442.0311.9557-.0525l.6453-.1401c-2.732-29.8055-2.5466-42.3397-2.5211-44.057v-.0005-.0005-.0006-.0006-.0006c.0019-.1299.0029-.1971.0016-.2043-.1451-.0355-.5839-.1382-.5839.0485-.2205 25.6284 1.2131 41.2279 1.4653 43.972.0263.2863.0398.4329.0371.4362zm25.9323-19.2297c.0997-12.2713 1.1386-17.9436 1.495-19.8889.0974-.533.1438-.7862.1058-.8186l1.412.3887c-2.6941 18.4046-1.6338 31.0976-1.4617 33.1578.0167.2037.0251.3035.0204.2946l-1.3442.2989c-.0863-2.2384-.1461-4.3412-.1842-6.3156l-.1118.0194-.9646.0037c-1.4626-10.4717-.4422-20.5745-.1058-23.9044v-.0007c.0561-.5562.0932-.9233.0965-1.0715.1944.0084.3095.0168.425.0252s.2315.0168.4283.0252c-.529 7.4058-.2385 13.4999.1893 17.7862zm1.5883-20.711.0125.0035c-.0037-.003-.0074-.0041-.0125-.0035zm-55.0264 54.8504c.0289-.0098.0589-.0153.0893-.0167.0595 0 .1023.039.1265.1155l1.5079 4.3482 1.2662-3.6401c.012-.0316.0213-.064.0279-.0975.0025-.0269.0025-.0547 0-.0821-.0004-.0404-.013-.0803-.0363-.1137-.0232-.0329-.0559-.0584-.0938-.0728-.1324-.0543-.2723-.0877-.4147-.0993-.0651 0-.0985-.0557-.0985-.1531-.0001-.0483.0062-.0965.0186-.1439.1543.0135.3161.0228.4853.032.1691.0093.3198.013.4518.013s.2956 0 .4592-.013c.056-.0046.1078-.0078.1556-.0116h.0008.0005c.0915-.0065.1684-.0116.2318-.0204-.0022.0246-.0022.0488 0 .0729.0059.0232.009.0473.0093.071 0 .0974-.0353.1494-.106.1628-.1401.0135-.2773.0483-.4072.1026-.0955.0492-.1677.1345-.2008.2371l-1.8706 5.3156c-.0308.012-.0636.0181-.0967.0185-.0725 0-.1264-.0543-.1617-.1605l-1.4875-4.2229-1.5173 4.3649c-.0277.0134-.0584.0199-.0892.0185-.0725 0-.1265-.0543-.1618-.1605l-1.917-5.2182c-.0287-.0816-.0881-.1489-.1655-.187-.1409-.0566-.2894-.0928-.4406-.1062-.0651-.019-.0986-.0747-.0986-.1722.0018-.045.008-.09.0186-.1345l.2714.019c.0541 0 .1082.0033.1619.0065.0443.0028.0883.0056.132.0065l.2863.0093h.2454c.1488 0 .3291 0 .5393-.013.0971-.006.1919-.0107.2841-.0149h.001.0005c.1065-.0051.21-.0097.3093-.0171.0097.0478.0153.0956.0168.1438 0 .09-.0317.142-.0986.1531-.1379.0102-.2733.0418-.4016.0938-.0413.0148-.0771.0422-.1024.0784-.0252.0362-.0388.0789-.0389.1229-.0005.0381.0085.0752.026.1086l1.3481 3.7018zm8.8803 5.4311c-.0221-.0436-.0311-.0933-.026-.142l-.0223-4.5625c-.0045-.0501.0046-.0998.0266-.1448s.0559-.0825.098-.1095c.1461-.0705.3034-.115.4649-.1308.0595-.0111.0892-.0631.0892-.1531-.0014-.0483-.0076-.0965-.0186-.1439-.0932.007-.1894.0121-.288.0167-.0883.0047-.1784.0093-.2698.0153-.1934.013-.3626.013-.5132.013s-.3366-.0037-.5225-.013h-.001c-.1856-.0092-.3712-.0185-.5568-.032-.011.0474-.0173.0956-.0186.1439-.0007.0343.0057.0677.0186.0993.0055.0148.0151.0273.0276.0371.0125.0097.0274.0153.0431.0167.1614.0158.3188.0603.4648.1308.0421.027.076.0645.098.1095.0219.045.0312.0947.0266.1448v4.5625c.0047.0497-.0046.0993-.0266.1439-.022.0445-.0559.0821-.098.1085-.1473.0682-.304.1132-.4648.1341-.0595.0116-.0893.0599-.0893.1439.0012.0487.0075.097.0186.1438.0955-.0065.1891-.0111.2836-.0162.0896-.0047.1802-.0088.2742-.0153.1934-.013.3663-.013.5318-.013s.3403.0055.5262.013c.186.0074.3719.0185.5578.0315.0111-.0468.0174-.0951.0186-.1438 0-.084-.0297-.1323-.0893-.1439-.1599-.0273-.3161-.0742-.4648-.1396-.0422-.0246-.0765-.0613-.0986-.1049zm5.7121-.1587c-.0027.0455.0088.0905.0328.129s.0593.0682.1011.0858c.1178.0483.2447.0701.3718.0636h.9725c.1515.0033.3024-.0195.4463-.0673.1187-.0394.2282-.103.3217-.187.0941-.0895.1737-.1934.2361-.308.0739-.1332.1361-.2724.1859-.4163.0067-.0227.0209-.0422.0402-.0552.0193-.0134.0425-.0195.0658-.0176.0328.0005.0651.0083.0948.0223l.1023.0505c-.0427.1866-.0818.3731-.1208.5601-.0391.187-.0726.4278-.1023.6779 0 .0654-.0242.1086-.054.1253-.0325.0195-.0699.0292-.1078.0278-.1004 0-.2268-.0093-.3719-.0241-.145-.0149-.2826-.0204-.396-.0204h-2.2313c-.1376 0-.3105 0-.5188.013-.098.006-.1939.0106-.2879.0148-.1056.0051-.2085.0098-.3089.0167-.0111-.0468-.0173-.0951-.0186-.1438 0-.084.0297-.1323.0893-.1439.173-.0199.3418-.0672.5001-.1396.0426-.0228.0779-.0571.1016-.0989.0238-.0422.035-.0904.0323-.1387v-4.5718c.0046-.0501-.0046-.0998-.0266-.1448s-.0559-.0825-.098-.1095c-.1515-.0719-.3146-.116-.4815-.1308-.0143-.0023-.0279-.0084-.0395-.0172-.0116-.0083-.021-.0199-.0275-.0329-.0154-.0288-.0231-.0608-.0223-.0933.0011-.0515.0067-.103.0167-.1536.1968.013.3901.0223.5816.0311h.0018l.0153.0009c.1971.0093.3719.013.5002.013.2008 0 .4165 0 .6415-.013.0968-.0055.1899-.0097.2787-.0139.1174-.0055.2277-.0102.3293-.0181.0097.0478.0153.0956.0167.1439 0 .103-.0316.1573-.0966.1628-.1943.0149-.3854.058-.5671.1286-.0593.0259-.109.0696-.1424.1252-.0333.0557-.0485.1202-.0436.1852zm11.8535-1.2194c.1217-.3368.1846-.6918.1859-1.05.002-.3865-.0628-.7707-.1915-1.1354-.1181-.3448-.3083-.6598-.5578-.9243-.2665-.2733-.587-.4867-.9408-.6278-.4196-.1629-.8667-.2422-1.3165-.2334h-2.0843-.2455l-.2621-.0148c-.093-.0019-.2009-.0093-.3273-.0228-.0097.0478-.0152.0956-.0167.1439-.0004.0343.0073.0682.0223.0993.0068.0143.0172.0273.0302.0366s.0282.0153.0441.0172c.1667.0218.3295.0673.4835.1345.0441.0242.0803.0608.1041.1054.0237.0445.0341.0946.0298.1452v4.5588c.0023.0492-.0101.0975-.0356.1392-.0256.0413-.0631.0742-.1076.0942-.1523.0677-.3112.1188-.4742.1531-.065.0116-.0966.0599-.0966.1439.0013.0482.0069.0965.0167.1438.096-.0065.1935-.0116.2928-.0162.0911-.0047.1837-.0093.2781-.0154.197-.0129.3718-.0129.528-.0129h1.8296c.4544.0097.9056-.0775 1.3239-.2562.3535-.1559.6703-.3851.9297-.6723.2449-.2714.4345-.5888.5578-.9336zm-1.428-2.9325c.4562.4483.6843 1.1331.6843 2.0546h-.0057c.0032.3318-.0425.6622-.1357.9805-.0803.2802-.227.5364-.4276.747-.2139.219-.4774.3823-.768.4761-.3748.1197-.767.1758-1.1602.1665-.1896 0-.3477-.0055-.4723-.019-.0997-.0065-.1982-.0246-.2938-.0538-.0601-.0158-.1136-.0506-.1524-.0993-.0307-.0441-.0464-.097-.0447-.1513v-4.7699h.781c.8739-.0023 1.5389.2204 1.9951.6686zm6.666-.663v2.2954h1.3926c.0556.0019.1103-.0139.1561-.0459.0458-.0316.0804-.0771.0986-.1295.0564-.1364.0969-.2784.1209-.4241.0064-.0366.0266-.0691.0564-.0909.0298-.0223.0669-.0316.1035-.0269.014.0009.028.0023.0419.0041.0036.0005.0073.001.0109.0019.0037.0005.0075.0014.0112.0018l.0067.0014.0725.0172c-.013.1322-.0223.2816-.0316.4482-.0093.1661-.013.3137-.013.4408v.3735c0 .1453.0162.3072.0345.4891l.0008.0074c-.0436.0126-.0886.0186-.1339.019-.0948 0-.1525-.0394-.1692-.116-.024-.1466-.0646-.29-.1208-.4278-.0186-.0524-.0533-.0974-.0991-.1285s-.1004-.0469-.1557-.045h-1.3927v2.114c0 .1253.08.2093.2418.2505.2613.052.5277.0734.7939.0636h.502c.1535.0033.3062-.0227.45-.0765.1248-.0483.24-.1188.3403-.2075.1016-.0895.1899-.1934.2622-.308.0819-.1272.1564-.2585.2231-.3944.0186-.0427.0632-.0632.1339-.0632.0332.001.0656.0103.0948.026l.093.0543c-.0593.1313-.1054.2682-.1376.4088l-.1116.4519c-.0292.1267-.0665.2515-.1116.3736-.039.1011-.0874.1531-.1469.1531-.0594 0-.1171 0-.2063-.0093-.0736-.0074-.1523-.0102-.2359-.013l-.0542-.0018c-.0112-.0005-.0224-.001-.0336-.001-.0128-.0004-.0257-.0004-.0385-.0009h-.0248c-.0726-.0009-.1459-.0023-.2192-.0111-.0726-.0089-.1391-.0056-.1988-.0028-.017.0009-.0335.0018-.0494.0023-.0098 0-.0194.0005-.0289.0005h-1.956c-.1729 0-.357 0-.5578.013-.0913.006-.1788.0102-.2634.0148-.1016.0051-.1991.0097-.2944.0167-.0111-.0469-.0174-.0951-.0186-.1434 0-.0844.0297-.1327.0892-.1438.1674-.0241.3311-.0696.4872-.1346.047-.0222.0862-.058.1124-.1034.0263-.0451.0383-.097.0345-.149v-4.5755c.0051-.0496-.0045-.0993-.0277-.1434-.0232-.044-.0589-.0798-.1025-.1034-.1618-.0664-.3309-.1128-.5039-.1383-.0595-.0111-.0892-.0631-.0892-.1531-.0022-.0246-.0022-.0497 0-.0747.0027-.0232.007-.0464.013-.0692.2547.0191.4704.032.6415.0376.1162.0037.2256.0023.3269.0014l.0433-.0009h.0352c.0201-.0005.04-.0005.0594-.0005h1.759c.2676 0 .4984 0 .6954-.026.1971-.0264.3272-.0264.3923-.0264s.1302.0487.1562.1475c.0311.116.0535.2339.0669.3531.0186.1383.0391.284.0633.4408.0187.1388.0641.2729.1338.394-.0466.0352-.1034.0543-.1617.0543-.0305.0037-.0614-.0024-.0883-.0172-.027-.0149-.0487-.0376-.0623-.065-.0618-.1364-.1307-.2691-.2064-.3976-.0594-.1035-.1362-.1958-.2269-.2728-.0914-.0761-.1979-.1314-.3123-.1624-.1468-.039-.2982-.0571-.45-.0543zm8.0769 2.8425h.6602l1.424 2.0657c.1044.154.2297.2923.3722.4111.1011.096.2329.1536.3716.1624.1731 0 .3499.0037.5448.013.1953.0093.3628.0185.4983.032.0121-.0534.0186-.1081.019-.1629 0-.071-.0264-.1118-.0802-.1248-.1318-.0343-.2603-.0793-.3847-.1345-.1508-.0724-.2793-.1838-.3721-.323l-1.4876-2.0792c.1851-.0654.3582-.161.5132-.2816.1373-.1058.258-.2316.3573-.3735.089-.13.1586-.2724.2064-.4223.0427-.1331.0655-.2723.0669-.4129.0097-.2163-.0293-.4325-.1142-.6315-.0854-.1991-.2139-.3768-.3768-.5188-.3271-.284-.8124-.4278-1.456-.4278h-1.2045c-.1731 0-.3592-.0037-.5452-.013-.1856-.0093-.3717-.0186-.5578-.032-.0106.0473-.0171.0956-.0185.1438 0 .0975.0297.1531.0895.1531.175.0084.3466.0529.5039.1309.0427.0264.0775.0636.1012.1076.0236.0446.0348.0942.0325.1448v4.5625c.0037.0515-.007.103-.0316.1485-.0241.045-.0612.0826-.1058.1076-.1517.0678-.3132.1119-.4779.1304-.0654.0116-.0988.0599-.0988.1439.0014.0487.0074.097.0185.1438.0965-.0069.1963-.0116.2993-.0167.0882-.0046.1786-.0088.2719-.0148.2023-.013.381-.013.5355-.013.2194 0 .444.0055.6728.013.2287.0074.4241.0185.586.0315.0097-.0501.0153-.1016.0167-.1531 0-.0896-.0353-.1401-.1062-.1531-.1898-.0158-.3773-.0548-.5578-.1156-.0561-.0181-.1053-.0538-.1387-.1025-.0339-.0487-.0501-.1072-.0473-.1666zm1.4374-.6385c-.2825.1939-.6217.2872-.9632.2649l-.4742-.0074v-2.4745h.4463c.2111-.0051.4218.0283.6209.0988.1559.0566.2969.1485.4111.2692.1044.1155.1823.2533.2269.4032.0491.1661.0728.3387.0705.5118 0 .45-.1114.7581-.3383.934zm10.0855 1.83v-3.7463c.0047-.0552-.0065-.1109-.0315-.1601-.0255-.0492-.064-.09-.1118-.1183-.1522-.0696-.3151-.1119-.4817-.1253-.0649 0-.0983-.0557-.0983-.1531.0014-.0483.0074-.0965.0185-.1439.1485.0135.2993.0228.4557.032.1559.0093.2992.013.4366.013.1378 0 .2677 0 .4111-.013.0199-.0018.0394-.0037.0594-.0051.0236-.0018.0473-.0037.071-.0051.025-.0018.0506-.0037.0756-.0055.071-.0047.1415-.0093.2121-.0163.0102.0478.0167.0956.019.1439 0 .0974-.0302.1475-.0896.1531-.1489.013-.2937.0585-.4236.1327-.0385.0311-.0687.0705-.0877.116s-.0269.0946-.0223.1438v5.2799c-.0199.0088-.0413.0139-.0631.0148h-.0705c-.0413 0-.0817-.0106-.1174-.0315-.0492-.0348-.0914-.0784-.1243-.129l-3.6239-4.7964v4.221c-.0046.0497.0047.0993.0265.1439.0222.0445.0561.0821.0979.1085.1535.0692.3164.1142.4835.1341.0593.0116.089.0599.089.1439-.0018.0487-.0083.0965-.0185.1438-.1485-.013-.2993-.0241-.4501-.0315-.1503-.0074-.2937-.013-.4236-.013-.1304 0-.2603 0-.4204.013-.0367.0028-.0724.0055-.1072.0079-.0325.0023-.064.0041-.0947.006-.083.0056-.1619.0107-.2352.0176-.0111-.0468-.0172-.0951-.0186-.1438 0-.084.0334-.1323.0989-.1439.1508-.0199.2969-.0654.4329-.1341.039-.0287.0696-.0672.0891-.1113.0199-.0441.0273-.0928.0227-.1411v-4.6112c.0019-.0422-.0065-.084-.0241-.122-.0177-.0381-.0446-.071-.0784-.0965-.1304-.071-.2752-.1123-.4237-.1216-.0668-.0111-.0988-.0631-.0988-.1531-.0009-.0269.0023-.0539.0093-.0803-.0023-.0209-.0023-.0422 0-.0636.1243.0126.2375.0218.3406.0283l.3029.013h.2863c.1146-.0032.2288.0033.342.0186.0561.0111.1063.0431.1397.09zm6.0592-1.7386v-2.2954l1.317-.0074c.152-.0028.304.0153.452.0543.114.032.22.0872.312.1624.091.077.167.1693.227.2728.066.1095.134.2417.206.3976.014.0279.035.0506.062.0655.027.0148.058.0204.088.0167.059 0 .116-.0191.162-.0543-.071-.1207-.117-.2548-.133-.394-.025-.1568-.045-.3025-.064-.4408-.015-.1187-.037-.2366-.067-.3531-.026-.0988-.091-.1475-.156-.1475s-.195 0-.392.0264c-.197.026-.429.026-.697.026h-1.758c-.044 0-.089.0005-.137.0014-.101.0009-.21.0023-.328-.0014-.172-.0056-.386-.0185-.641-.0376-.002.0079-.003.0153-.006.0228-.004.0167-.009.0324-.009.0464v.0747c0 .09.03.142.089.1531.174.0255.343.0719.504.1383.044.0236.08.0594.103.1034.023.0441.033.0938.028.1434v4.5755c.003.052-.009.1039-.035.149-.026.045-.065.0812-.112.1034-.156.065-.32.1105-.488.1346-.059.0111-.089.0594-.089.1438.002.0483.008.0965.019.1434.095-.007.192-.0116.293-.0167h.001c.045-.0023.091-.0046.137-.0074.042-.0023.084-.0047.127-.0074.201-.013.385-.013.557-.013h1.957c.023 0 .049-.0014.076-.0028.06-.0028.128-.0061.201.0028.073.0088.146.0102.219.0111.033.0005.065.0009.097.0019l.053.0018c.084.0028.163.0056.237.013.089.0093.145.0093.204.0093.06 0 .112-.0464.149-.1531.037-.1063.074-.2297.112-.3736l.111-.4519c.031-.1406.078-.2779.138-.4088l-.093-.0543c-.029-.0157-.062-.025-.095-.026-.071 0-.115.0205-.134.0632-.067.1359-.141.2672-.223.3944-.073.1141-.161.218-.262.308-.1.0887-.215.1592-.34.2075-.144.0533-.297.0793-.45.0765h-.501c-.266.0098-.532-.0116-.793-.0636-.162-.0412-.242-.1252-.242-.2505v-2.114h1.392c.056-.0019.11.0139.156.045s.08.0761.099.1285c.056.1378.096.2812.121.4278.017.0766.072.116.169.116.045-.0004.09-.0064.134-.019l-.006-.0603c-.016-.1605-.031-.3048-.031-.4362v-.3735c0-.1271.004-.2747.013-.4408.009-.1666.019-.316.031-.4482l-.072-.0172c-.023-.0046-.047-.0079-.07-.0092-.037-.0047-.074.0046-.104.0269-.03.0218-.05.0543-.056.0909-.026.1452-.066.2872-.122.4241-.018.0524-.052.0979-.098.1295-.046.032-.101.0478-.156.0459zm10.327-1.2551c-.044.0106-.089.0171-.134.0185-.06.0051-.12-.0106-.171-.0445-.033-.0274-.06-.0613-.08-.0993-.119-.2928-.311-.5498-.557-.747-.261-.1675-.567-.2483-.876-.2316-.137-.0009-.274.0186-.406.058-.121.0353-.234.0928-.335.1698-.093.0738-.171.1666-.226.2729-.058.1104-.088.2338-.086.3587-.002.135.029.2686.091.3892.061.1202.151.2237.261.3016.322.2265.672.4102 1.041.5471.467.1647.897.4218 1.263.7568.132.135.236.2956.306.4719.07.1768.103.3656.099.5554.002.2329-.036.4649-.112.6853-.072.2111-.19.4028-.348.5601-.173.1693-.382.2969-.611.3735-.291.096-.596.1415-.902.1345-.337.0033-.674-.0352-1.002-.1155-.268-.0645-.526-.168-.764-.3067-.019-.2501-.045-.4928-.08-.7243-.036-.2315-.078-.4673-.125-.7006.048-.0181.1-.0274.151-.026.059-.0037.117.0134.165.0487.046.0436.081.0974.102.1568.106.3619.305.69.577.9503.281.2185.631.3271.985.3048.17.0038.34-.0236.5-.0802.134-.0483.256-.1248.358-.2246.092-.0914.165-.2014.213-.3229.049-.1221.074-.2529.073-.3847.006-.1387-.019-.2775-.074-.4051s-.139-.2408-.244-.3308c-.272-.2125-.578-.3758-.906-.4835-.237-.0877-.469-.1879-.695-.3011-.194-.0952-.375-.2172-.536-.362-.146-.1345-.263-.2978-.344-.4802-.084-.2055-.126-.4273-.12-.6501-.002-.2139.04-.4259.12-.6236.079-.1921.197-.3647.348-.5062.163-.148.352-.2635.558-.3396.231-.0868.477-.1295.723-.1253.27-.0014.539.0255.804.0802.295.0664.585.1559.866.2692.011.1865.028.3735.048.5786.017.1925.045.3842.082.5735zm7.469.0185c.045-.0014.09-.0079.134-.0185-.039-.1791-.065-.368-.087-.5735-.022-.2051-.037-.3921-.05-.5786-.281-.1128-.57-.2028-.865-.2692-.264-.0547-.533-.0816-.803-.0802-.247-.0042-.492.0385-.724.1253-.202.077-.389.192-.548.3396-.151.142-.27.3146-.35.5062-.08.1982-.12.4102-.119.6236-.005.2228.035.4441.119.6501.081.1819.198.3452.344.4802.161.1448.342.2668.536.362.227.1132.46.2134.697.3011.327.1081.633.2714.906.4835.104.0905.187.2037.242.3313s.08.2659.074.4046c0 .1313-.024.2622-.071.3847-.049.1211-.122.231-.214.3234-.102.0983-.224.1749-.357.2241-.16.0566-.33.0835-.5.0802-.355.0218-.706-.0863-.987-.3043-.271-.2613-.469-.5893-.575-.9508-.022-.0594-.057-.1127-.102-.1568-.048-.0348-.107-.052-.166-.0487-.052-.001-.103.0079-.152.026.048.2333.087.4691.125.7006.037.2315.063.4742.081.7243.238.1387.495.2422.763.3067.329.0798.665.1188 1.004.1155.306.007.611-.0385.902-.1345.228-.077.438-.2047.611-.3735.157-.1578.275-.3494.348-.5601.076-.2204.113-.4524.112-.6853.004-.1903-.03-.3791-.1-.5554-.07-.1768-.174-.3374-.308-.4719-.365-.3355-.795-.5925-1.262-.7568-.368-.1369-.718-.3206-1.04-.5471-.11-.0774-.2-.1809-.261-.3016-.062-.1201-.093-.2542-.092-.3892-.001-.1249.028-.2478.086-.3587.055-.1063.133-.1991.226-.2729.101-.0761.214-.1336.335-.1698.132-.0394.27-.0589.407-.058.309-.0171.615.0641.875.2316.246.1972.438.4542.557.747.019.0385.047.0724.08.0993.05.0339.11.0496.169.0445z" fill="#fff" fill-rule="evenodd"/>
</svg>